<?xml version="1.0" standalone="no"?>
<!DOCTYPE svg PUBLIC "-//W3C//DTD SVG 20010904//EN"
 "http://www.w3.org/TR/2001/REC-SVG-20010904/DTD/svg10.dtd">
<svg version="1.0" xmlns="http://www.w3.org/2000/svg"
 width="1280.000000pt" height="426.000000pt" viewBox="0 0 1280.000000 426.000000"
 preserveAspectRatio="xMidYMid meet">

<g transform="translate(0.000000,426.000000) scale(0.100000,-0.100000)"
fill="#777" stroke="none">
<path d="M2325 4159 c-246 -26 -532 -106 -719 -201 l-49 -25 39 -29 c82 -60
213 -175 259 -226 93 -103 104 -141 56 -189 -54 -53 -77 -44 -199 79 -138 139
-257 228 -407 302 -153 76 -274 110 -422 117 -131 7 -180 -6 -245 -65 -75 -68
-104 -150 -118 -332 -7 -100 -16 -148 -46 -240 -34 -105 -37 -125 -38 -235 -1
-115 0 -123 31 -187 51 -108 163 -210 256 -233 15 -4 27 -10 27 -14 0 -4 -19
-75 -43 -157 -24 -82 -52 -184 -63 -228 -15 -62 -24 -81 -41 -89 -22 -10 -23
-16 -23 -111 0 -56 -6 -135 -14 -176 -49 -255 -59 -554 -26 -738 91 -504 471
-917 965 -1047 216 -57 419 -59 663 -6 290 63 497 63 789 -1 135 -30 163 -33
318 -33 125 0 192 5 252 18 269 58 494 178 682 366 258 256 391 581 391 954 0
128 -19 340 -42 462 -11 60 -15 111 -17 238 -1 60 -3 68 -24 76 -18 7 -26 24
-42 87 -10 44 -38 146 -62 228 -24 82 -43 153 -43 157 0 4 12 10 28 14 92 23
204 125 255 233 31 64 32 72 31 187 -1 110 -4 130 -38 235 -30 92 -39 140 -46
240 -14 182 -43 264 -118 332 -65 59 -114 72 -245 65 -148 -7 -269 -41 -422
-117 -150 -74 -269 -163 -407 -302 -122 -123 -145 -132 -199 -79 -48 48 -37
86 56 189 46 51 177 166 259 226 l39 29 -39 20 c-320 165 -802 248 -1199 206z
m-1433 -365 c51 -26 97 -108 203 -359 37 -88 81 -187 97 -220 39 -78 127 -221
144 -236 8 -6 14 -15 14 -19 0 -11 -136 -63 -237 -92 -110 -31 -278 -32 -344
-2 -144 67 -192 197 -138 379 47 163 58 217 67 337 11 147 28 194 81 220 36
18 65 16 113 -8z m3466 -1 c37 -23 54 -79 64 -213 9 -119 20 -173 67 -335 54
-180 5 -312 -139 -379 -65 -30 -233 -29 -343 2 -74 21 -237 80 -237 86 0 2 25
40 56 86 69 104 112 190 199 395 116 275 159 345 230 370 42 15 65 12 103 -12z
m-1719 -180 c45 -22 57 -34 76 -77 21 -48 23 -69 29 -331 6 -295 15 -444 42
-664 17 -134 17 -135 -4 -152 -12 -9 -19 -19 -17 -23 3 -3 2 -4 -1 -1 -4 2
-25 -6 -48 -18 -35 -19 -57 -22 -156 -22 -108 0 -118 2 -168 29 -29 16 -57 35
-63 43 -9 10 -7 48 5 146 27 219 36 368 42 662 6 262 8 283 29 331 19 43 31
55 76 77 29 15 65 27 79 27 14 0 50 -12 79 -27z m-855 -1084 c57 -67 78 -189
55 -314 -13 -72 -40 -126 -75 -154 -39 -31 -71 -27 -110 15 -91 96 -90 370 1
461 47 47 83 45 129 -8z m1681 8 c91 -91 92 -365 1 -461 -39 -42 -71 -46 -110
-15 -102 81 -114 358 -20 468 46 53 82 55 129 8z m-1181 -373 c24 -180 -40
-405 -155 -539 -143 -166 -297 -243 -509 -252 -141 -7 -234 10 -346 63 -44 21
-83 37 -89 35 -5 -1 -7 1 -3 4 4 4 -11 21 -33 37 -65 47 -142 133 -178 200
l-34 61 99 -6 c55 -2 146 -16 204 -31 151 -37 256 -49 399 -44 99 4 138 10
184 27 84 33 199 113 260 182 63 72 141 196 163 262 8 26 19 47 23 47 5 0 11
-21 15 -46z m590 -1 c22 -66 100 -190 163 -262 61 -69 176 -149 260 -182 46
-17 85 -23 184 -27 143 -5 248 7 399 44 128 32 306 45 298 22 -14 -34 -80
-128 -120 -169 -174 -180 -416 -253 -670 -205 -71 14 -204 70 -238 101 -9 8
-21 15 -26 15 -12 0 -118 110 -162 167 -33 43 -81 140 -100 203 -31 100 -39
340 -12 340 5 0 16 -21 24 -47z m-235 -22 c64 -33 96 -94 140 -267 35 -136
105 -258 208 -360 264 -261 664 -303 988 -102 72 45 196 175 245 257 48 81 52
81 119 5 66 -75 85 -153 78 -317 -11 -290 -125 -546 -337 -757 -142 -142 -319
-243 -515 -296 -133 -35 -369 -45 -485 -19 -396 88 -644 88 -1040 0 -116 -26
-352 -16 -485 19 -196 53 -373 154 -515 296 -213 212 -326 468 -337 761 -5
122 -3 143 16 202 22 64 80 145 121 167 16 9 24 1 55 -55 44 -78 169 -209 249
-260 274 -175 614 -173 875 4 163 111 277 273 327 468 30 114 63 192 95 223
54 51 133 64 198 31z"/>
<path d="M2244 1405 c-12 -8 -27 -28 -33 -44 -22 -53 4 -86 139 -175 l120 -79
0 -131 c0 -85 -5 -140 -13 -156 -22 -44 -99 -87 -179 -100 -40 -6 -83 -14 -96
-16 -85 -17 -83 -148 3 -170 71 -18 289 49 352 108 l22 20 38 -31 c52 -42 143
-77 236 -91 118 -18 166 6 167 83 0 24 -7 44 -20 57 -20 20 -24 21 -134 40
-78 13 -130 36 -166 75 -24 25 -25 33 -28 169 l-3 142 120 80 c141 93 165 123
137 181 -15 33 -48 53 -86 53 -10 0 -73 -36 -139 -80 l-121 -80 -121 80 c-125
83 -156 93 -195 65z"/>
<path d="M6170 2330 l0 -610 55 0 55 0 0 610 0 610 -55 0 -55 0 0 -610z"/>
<path d="M8760 2933 c-58 -22 -78 -90 -40 -131 55 -59 150 -22 150 58 0 43
-69 89 -110 73z"/>
<path d="M11748 2870 c-195 -35 -299 -138 -299 -296 0 -51 6 -78 26 -120 24
-49 39 -64 122 -120 13 -9 7 -16 -39 -42 -104 -58 -153 -144 -151 -260 5 -208
193 -334 478 -319 256 14 404 132 405 325 0 118 -53 203 -161 258 l-51 25 44
28 c57 36 106 96 119 146 6 22 9 70 6 107 -8 126 -93 215 -242 255 -66 17
-198 24 -257 13z m250 -120 c89 -40 132 -98 132 -180 0 -60 -17 -96 -64 -137
-55 -49 -121 -66 -240 -61 -124 4 -183 29 -231 97 -24 35 -30 52 -30 99 0 98
60 165 175 197 73 20 194 13 258 -15z m45 -518 c86 -42 120 -90 125 -176 9
-139 -90 -227 -273 -243 -159 -13 -297 39 -343 128 -41 82 -26 198 34 250 27
23 97 58 141 69 21 5 86 8 145 6 96 -2 112 -5 171 -34z"/>
<path d="M5099 2315 c-1 -305 -2 -563 -3 -572 -1 -17 26 -18 407 -21 l408 -2
-3 52 -3 53 -342 3 -343 2 0 210 0 210 295 0 295 0 0 50 0 50 -295 0 -295 0 0
205 0 205 330 0 330 0 0 55 0 55 -390 0 -390 0 -1 -555z"/>
<path d="M10464 2856 c-3 -8 -4 -31 -2 -52 l3 -39 292 -3 293 -2 -160 -200
c-147 -183 -160 -202 -160 -240 l0 -40 58 0 c81 0 178 -18 222 -40 130 -66
154 -249 48 -351 -52 -49 -105 -63 -233 -63 -107 0 -127 3 -189 27 -38 15 -90
43 -117 62 l-48 34 -26 -45 c-25 -43 -26 -47 -10 -64 25 -27 141 -84 215 -106
99 -28 274 -26 363 4 150 52 232 164 232 314 0 67 -5 84 -35 144 -54 104 -122
145 -303 179 -27 5 -24 10 133 205 154 192 160 201 160 245 l0 45 -365 0
c-304 0 -367 -2 -371 -14z"/>
<path d="M6830 2574 c-113 -31 -203 -102 -254 -204 -91 -182 -63 -395 71 -528
127 -127 327 -163 514 -93 58 22 139 83 139 105 0 7 -13 25 -29 40 l-28 27
-56 -39 c-75 -52 -127 -65 -234 -60 -106 5 -167 32 -232 103 -45 49 -64 86
-75 148 -5 27 -3 37 6 37 7 1 168 2 358 3 l345 2 -1 82 c-1 71 -5 91 -36 155
-58 122 -144 193 -268 222 -80 19 -148 19 -220 0z m254 -118 c86 -42 151 -132
158 -217 l3 -34 -302 -3 c-247 -2 -303 0 -303 11 0 33 32 117 59 154 85 117
250 155 385 89z"/>
<path d="M7820 2572 c-82 -22 -145 -58 -197 -115 -150 -162 -145 -426 9 -580
158 -158 450 -163 603 -11 l45 46 0 -89 c0 -124 -20 -186 -79 -244 -27 -28
-63 -52 -86 -59 -69 -21 -203 -24 -278 -6 -66 16 -180 66 -192 86 -11 18 -24
11 -52 -31 l-27 -41 24 -20 c42 -34 137 -77 202 -93 75 -17 246 -20 320 -4
125 27 217 107 259 226 23 67 24 73 27 506 l3 437 -55 0 -56 0 0 -75 c0 -41
-2 -75 -5 -75 -3 0 -21 17 -40 39 -93 102 -266 144 -425 103z m268 -110 c77
-30 127 -74 162 -146 26 -52 31 -74 31 -134 1 -136 -57 -234 -169 -289 -51
-25 -68 -28 -157 -28 -86 0 -107 3 -149 24 -63 31 -116 84 -147 147 -33 68
-34 196 -1 269 71 155 256 223 430 157z"/>
<path d="M9335 2574 c-69 -15 -187 -67 -207 -91 -8 -11 8 -49 38 -91 1 -2 19
8 41 22 94 62 264 90 356 57 87 -30 137 -110 137 -217 l0 -42 -197 -4 c-234
-6 -283 -19 -351 -92 -99 -108 -67 -287 64 -357 139 -76 340 -57 442 41 l42
41 0 -61 0 -60 60 0 60 0 0 263 c0 144 -5 295 -10 335 -23 173 -125 258 -320
268 -54 2 -111 -2 -155 -12z m365 -528 c0 -67 -3 -78 -32 -122 -19 -27 -54
-62 -81 -78 -42 -26 -61 -30 -138 -34 -149 -7 -227 38 -237 137 -8 87 30 140
114 160 22 5 114 9 207 10 l167 1 0 -74z"/>
<path d="M8730 2150 l0 -430 55 0 55 0 0 430 0 430 -55 0 -55 0 0 -430z"/>
</g>
</svg>
