<?xml version="1.0" standalone="no"?>
<!DOCTYPE svg PUBLIC "-//W3C//DTD SVG 20010904//EN"
 "http://www.w3.org/TR/2001/REC-SVG-20010904/DTD/svg10.dtd">
<svg version="1.0" xmlns="http://www.w3.org/2000/svg"
 width="500.000000pt" height="500.000000pt" viewBox="0 0 500.000000 500.000000"
 preserveAspectRatio="xMidYMid meet">

<g transform="translate(0.000000,500.000000) scale(0.100000,-0.100000)"
fill="#000000" stroke="none">
<path d="M2250 4883 c-277 -28 -558 -100 -792 -202 -144 -63 -141 -59 -68
-113 142 -106 304 -262 362 -347 26 -38 23 -84 -8 -120 -28 -34 -81 -49 -112
-32 -11 6 -76 66 -144 134 -289 289 -581 441 -915 477 -212 23 -333 -33 -405
-186 -34 -73 -53 -170 -66 -339 -8 -92 -19 -147 -47 -235 -49 -155 -62 -250
-46 -348 14 -94 62 -199 122 -266 49 -55 141 -119 197 -137 20 -6 41 -15 45
-19 4 -4 -17 -92 -46 -196 -30 -104 -63 -225 -73 -268 -16 -69 -22 -81 -45
-90 -33 -12 -37 -30 -37 -181 -1 -60 -10 -166 -21 -235 -31 -191 -36 -267 -36
-505 0 -249 9 -307 75 -508 173 -520 612 -911 1160 -1032 50 -11 142 -19 275
-22 l200 -5 199 41 c373 77 579 77 952 0 l199 -41 200 5 c133 3 225 11 275 22
608 135 1061 584 1207 1195 20 86 26 140 30 296 6 202 -3 337 -38 552 -11 72
-19 173 -19 245 0 146 -4 163 -39 175 -23 8 -29 19 -45 88 -10 44 -43 164 -73
268 -29 104 -50 192 -46 196 4 4 25 13 45 19 57 18 149 82 197 137 127 144
160 332 94 551 -14 48 -34 117 -45 153 -10 36 -21 115 -24 175 -7 140 -26 232
-62 310 -72 152 -195 208 -407 185 -328 -35 -621 -187 -904 -468 -74 -73 -142
-137 -152 -142 -35 -19 -70 -11 -105 24 -45 45 -46 87 -2 147 47 66 210 221
315 301 51 39 91 74 88 78 -8 13 -214 101 -317 136 -178 61 -359 100 -573 124
-83 9 -444 11 -525 3z m-1724 -422 c78 -35 124 -111 254 -421 102 -241 160
-358 239 -477 l61 -93 -38 -19 c-101 -51 -289 -104 -415 -116 -151 -15 -291
37 -359 134 -66 94 -73 196 -23 361 52 172 65 238 74 378 11 168 31 225 91
254 44 22 65 22 116 -1z m4081 -6 c44 -29 64 -94 74 -238 12 -173 15 -189 61
-339 63 -205 62 -298 -4 -401 -97 -151 -315 -184 -612 -90 -45 14 -109 38
-144 54 l-62 28 61 93 c79 120 137 237 239 478 130 309 176 385 254 422 46 21
94 18 133 -7z m-2046 -196 c57 -19 100 -59 124 -113 22 -48 23 -67 29 -366 5
-296 23 -589 46 -760 17 -128 21 -195 13 -205 -17 -23 -101 -63 -155 -75 -71
-16 -240 -8 -288 13 -19 9 -50 27 -69 41 -19 14 -37 23 -41 21 -3 -2 -1 40 6
93 38 288 59 610 63 947 1 121 5 231 8 245 29 124 150 197 264 159z m-988
-1269 c108 -95 125 -383 32 -531 -29 -45 -52 -59 -98 -59 -93 0 -154 144 -145
342 4 91 9 114 36 171 49 105 112 133 175 77z m1964 10 c35 -21 74 -88 93
-159 15 -55 14 -206 -1 -268 -34 -136 -112 -204 -190 -163 -70 38 -120 225
-100 374 14 97 44 167 88 206 39 35 66 37 110 10z m-1363 -565 c1 -134 -8
-185 -53 -306 -85 -227 -313 -430 -556 -495 -103 -28 -343 -26 -440 3 -189 56
-380 197 -471 349 -60 100 -62 98 52 92 59 -3 152 -18 231 -37 402 -96 645
-80 847 54 77 51 181 154 234 232 47 69 132 238 132 262 1 12 3 11 12 -4 7
-12 12 -70 12 -150z m731 25 c70 -139 144 -233 252 -320 220 -178 466 -204
906 -99 153 37 327 51 327 27 0 -23 -95 -159 -152 -216 -94 -95 -219 -170
-358 -213 -65 -21 -95 -24 -230 -24 -135 0 -165 3 -230 24 -233 73 -404 218
-511 431 -61 121 -81 212 -83 365 0 72 3 139 8 150 7 18 9 16 21 -15 7 -19 29
-69 50 -110z m-320 51 c22 -10 46 -25 54 -34 7 -9 18 -14 25 -10 6 3 8 3 4 -2
-4 -4 4 -30 18 -57 13 -26 36 -92 50 -146 32 -126 64 -212 77 -212 6 0 8 -3 4
-6 -20 -20 97 -187 201 -286 309 -295 783 -337 1141 -101 128 84 245 209 306
325 17 32 33 58 36 58 20 0 100 -87 127 -137 42 -80 54 -139 54 -263 -1 -192
-43 -373 -127 -547 -196 -408 -551 -681 -989 -760 -136 -24 -354 -22 -481 6
-455 100 -710 103 -1099 15 -215 -48 -363 -53 -564 -18 -601 104 -1069 631
-1101 1240 -3 66 -3 147 1 180 11 82 67 192 125 243 25 23 49 41 52 41 4 0 21
-26 38 -58 18 -32 46 -76 63 -98 55 -70 152 -164 163 -157 5 3 7 1 3 -5 -7
-11 96 -83 179 -125 81 -40 203 -74 311 -86 214 -23 430 31 610 151 196 131
328 320 388 558 35 136 53 183 88 232 53 72 158 98 243 59z"/>
<path d="M2143 1655 c-65 -28 -80 -116 -29 -164 14 -13 80 -60 148 -105 l123
-81 5 -143 c3 -78 2 -157 -2 -174 -15 -75 -130 -137 -281 -153 -88 -10 -127
-42 -127 -105 0 -33 6 -48 29 -71 16 -16 40 -30 53 -30 132 -9 290 35 385 108
24 18 48 33 53 33 5 0 29 -15 53 -33 95 -73 253 -117 385 -108 13 0 37 14 53
30 41 41 41 98 -1 139 -24 25 -40 31 -97 37 -154 16 -266 77 -281 153 -4 17
-5 96 -2 174 l5 141 133 90 c131 87 172 129 172 172 0 35 -37 82 -73 94 -47
16 -73 4 -226 -98 l-120 -81 -137 90 c-74 49 -142 90 -149 90 -7 0 -19 2 -27
5 -7 2 -27 -2 -45 -10z"/>
</g>
</svg>
